
          <svg xmlns="http://www.w3.org/2000/svg" width="800" height="400" viewBox="0 0 800 400">
            <!-- https://grabient.com/HQNgnAzANMBMEAYYBYwEYoFoHAmgHCmIdnGCDBBAOwyzLSk0a75KljLs4CssYQA/ -->
        
          <defs>
            <clipPath id="squareClip">
              <rect x="0" y="0" width="800" height="400" />
            </clipPath>
          </defs>
          <g clip-path="url(#squareClip)">
        <path d="
              M 400.000,200.000
              L 847.214,200.000
              A 447.214,447.214 0 0 1 841.708,269.960
              Z
            " fill="rgb(236, 177, 199)" fill-opacity="1.000" /><path d="
              M 400.000,200.000
              L 841.708,269.960
              A 447.214,447.214 0 0 1 825.326,338.197
              Z
            " fill="rgb(238, 173, 197)" fill-opacity="1.000" /><path d="
              M 400.000,200.000
              L 825.326,338.197
              A 447.214,447.214 0 0 1 798.471,403.031
              Z
            " fill="rgb(241, 170, 194)" fill-opacity="1.000" /><path d="
              M 400.000,200.000
              L 798.471,403.031
              A 447.214,447.214 0 0 1 761.804,462.866
              Z
            " fill="rgb(243, 167, 192)" fill-opacity="1.000" /><path d="
              M 400.000,200.000
              L 761.804,462.866
              A 447.214,447.214 0 0 1 716.228,516.228
              Z
            " fill="rgb(245, 164, 190)" fill-opacity="1.000" /><path d="
              M 400.000,200.000
              L 716.228,516.228
              A 447.214,447.214 0 0 1 662.866,561.804
              Z
            " fill="rgb(248, 161, 187)" fill-opacity="1.000" /><path d="
              M 400.000,200.000
              L 662.866,561.804
              A 447.214,447.214 0 0 1 603.031,598.471
              Z
            " fill="rgb(250, 157, 185)" fill-opacity="1.000" /><path d="
              M 400.000,200.000
              L 603.031,598.471
              A 447.214,447.214 0 0 1 538.197,625.326
              Z
            " fill="rgb(253, 154, 182)" fill-opacity="1.000" /><path d="
              M 400.000,200.000
              L 538.197,625.326
              A 447.214,447.214 0 0 1 469.960,641.708
              Z
            " fill="rgb(255, 151, 180)" fill-opacity="1.000" /><path d="
              M 400.000,200.000
              L 469.960,641.708
              A 447.214,447.214 0 0 1 400.000,647.214
              Z
            " fill="rgb(255, 146, 175)" fill-opacity="1.000" /><path d="
              M 400.000,200.000
              L 400.000,647.214
              A 447.214,447.214 0 0 1 330.040,641.708
              Z
            " fill="rgb(255, 141, 170)" fill-opacity="1.000" /><path d="
              M 400.000,200.000
              L 330.040,641.708
              A 447.214,447.214 0 0 1 261.803,625.326
              Z
            " fill="rgb(255, 136, 165)" fill-opacity="1.000" /><path d="
              M 400.000,200.000
              L 261.803,625.326
              A 447.214,447.214 0 0 1 196.969,598.471
              Z
            " fill="rgb(255, 131, 161)" fill-opacity="1.000" /><path d="
              M 400.000,200.000
              L 196.969,598.471
              A 447.214,447.214 0 0 1 137.134,561.804
              Z
            " fill="rgb(254, 126, 156)" fill-opacity="1.000" /><path d="
              M 400.000,200.000
              L 137.134,561.804
              A 447.214,447.214 0 0 1 83.772,516.228
              Z
            " fill="rgb(254, 121, 151)" fill-opacity="1.000" /><path d="
              M 400.000,200.000
              L 83.772,516.228
              A 447.214,447.214 0 0 1 38.196,462.866
              Z
            " fill="rgb(254, 117, 147)" fill-opacity="1.000" /><path d="
              M 400.000,200.000
              L 38.196,462.866
              A 447.214,447.214 0 0 1 1.529,403.031
              Z
            " fill="rgb(254, 112, 142)" fill-opacity="1.000" /><path d="
              M 400.000,200.000
              L 1.529,403.031
              A 447.214,447.214 0 0 1 -25.326,338.197
              Z
            " fill="rgb(251, 106, 136)" fill-opacity="1.000" /><path d="
              M 400.000,200.000
              L -25.326,338.197
              A 447.214,447.214 0 0 1 -41.708,269.960
              Z
            " fill="rgb(248, 100, 131)" fill-opacity="1.000" /><path d="
              M 400.000,200.000
              L -41.708,269.960
              A 447.214,447.214 0 0 1 -47.214,200.000
              Z
            " fill="rgb(245, 94, 126)" fill-opacity="1.000" /><path d="
              M 400.000,200.000
              L -47.214,200.000
              A 447.214,447.214 0 0 1 -41.708,130.040
              Z
            " fill="rgb(243, 88, 120)" fill-opacity="1.000" /><path d="
              M 400.000,200.000
              L -41.708,130.040
              A 447.214,447.214 0 0 1 -25.326,61.803
              Z
            " fill="rgb(240, 82, 115)" fill-opacity="1.000" /><path d="
              M 400.000,200.000
              L -25.326,61.803
              A 447.214,447.214 0 0 1 1.529,-3.031
              Z
            " fill="rgb(237, 77, 109)" fill-opacity="1.000" /><path d="
              M 400.000,200.000
              L 1.529,-3.031
              A 447.214,447.214 0 0 1 38.196,-62.866
              Z
            " fill="rgb(234, 71, 104)" fill-opacity="1.000" /><path d="
              M 400.000,200.000
              L 38.196,-62.866
              A 447.214,447.214 0 0 1 83.772,-116.228
              Z
            " fill="rgb(231, 65, 99)" fill-opacity="1.000" /><path d="
              M 400.000,200.000
              L 83.772,-116.228
              A 447.214,447.214 0 0 1 137.134,-161.804
              Z
            " fill="rgb(226, 59, 94)" fill-opacity="1.000" /><path d="
              M 400.000,200.000
              L 137.134,-161.804
              A 447.214,447.214 0 0 1 196.969,-198.471
              Z
            " fill="rgb(222, 53, 90)" fill-opacity="1.000" /><path d="
              M 400.000,200.000
              L 196.969,-198.471
              A 447.214,447.214 0 0 1 261.803,-225.326
              Z
            " fill="rgb(217, 47, 86)" fill-opacity="1.000" /><path d="
              M 400.000,200.000
              L 261.803,-225.326
              A 447.214,447.214 0 0 1 330.040,-241.708
              Z
            " fill="rgb(212, 41, 81)" fill-opacity="1.000" /><path d="
              M 400.000,200.000
              L 330.040,-241.708
              A 447.214,447.214 0 0 1 400.000,-247.214
              Z
            " fill="rgb(208, 35, 77)" fill-opacity="1.000" /><path d="
              M 400.000,200.000
              L 400.000,-247.214
              A 447.214,447.214 0 0 1 469.960,-241.708
              Z
            " fill="rgb(203, 29, 73)" fill-opacity="1.000" /><path d="
              M 400.000,200.000
              L 469.960,-241.708
              A 447.214,447.214 0 0 1 538.197,-225.326
              Z
            " fill="rgb(198, 23, 68)" fill-opacity="1.000" /><path d="
              M 400.000,200.000
              L 538.197,-225.326
              A 447.214,447.214 0 0 1 603.031,-198.471
              Z
            " fill="rgb(193, 17, 64)" fill-opacity="1.000" /><path d="
              M 400.000,200.000
              L 603.031,-198.471
              A 447.214,447.214 0 0 1 662.866,-161.804
              Z
            " fill="rgb(199, 37, 81)" fill-opacity="1.000" /><path d="
              M 400.000,200.000
              L 662.866,-161.804
              A 447.214,447.214 0 0 1 716.228,-116.228
              Z
            " fill="rgb(204, 57, 98)" fill-opacity="1.000" /><path d="
              M 400.000,200.000
              L 716.228,-116.228
              A 447.214,447.214 0 0 1 761.804,-62.866
              Z
            " fill="rgb(209, 77, 115)" fill-opacity="1.000" /><path d="
              M 400.000,200.000
              L 761.804,-62.866
              A 447.214,447.214 0 0 1 798.471,-3.031
              Z
            " fill="rgb(215, 97, 132)" fill-opacity="1.000" /><path d="
              M 400.000,200.000
              L 798.471,-3.031
              A 447.214,447.214 0 0 1 825.326,61.803
              Z
            " fill="rgb(220, 117, 149)" fill-opacity="1.000" /><path d="
              M 400.000,200.000
              L 825.326,61.803
              A 447.214,447.214 0 0 1 841.708,130.040
              Z
            " fill="rgb(225, 137, 166)" fill-opacity="1.000" /><path d="
              M 400.000,200.000
              L 841.708,130.040
              A 447.214,447.214 0 0 1 847.214,200.000
              Z
            " fill="rgb(231, 157, 183)" fill-opacity="1.000" />
          </g>
        </svg>
        